<?xml version="1.0" encoding="UTF-8" standalone="no"?>
<!-- Created with Inkscape (http://www.inkscape.org/) -->

<svg
   width="135.46666mm"
   height="135.46666mm"
   viewBox="0 0 135.46666 135.46666"
   version="1.1"
   id="svg1"
   xml:space="preserve"
   inkscape:version="1.4 (e7c3feb1, 2024-10-09)"
   sodipodi:docname="addon-toggler-icon-project.svg"
   xmlns:inkscape="http://www.inkscape.org/namespaces/inkscape"
   xmlns:sodipodi="http://sodipodi.sourceforge.net/DTD/sodipodi-0.dtd"
   xmlns:xlink="http://www.w3.org/1999/xlink"
   xmlns="http://www.w3.org/2000/svg"
   xmlns:svg="http://www.w3.org/2000/svg"><sodipodi:namedview
     id="namedview1"
     pagecolor="#ffffff"
     bordercolor="#000000"
     borderopacity="0.25"
     inkscape:showpageshadow="2"
     inkscape:pageopacity="0.0"
     inkscape:pagecheckerboard="0"
     inkscape:deskcolor="#d1d1d1"
     inkscape:document-units="mm"
     inkscape:zoom="0.51654111"
     inkscape:cx="302.00888"
     inkscape:cy="497.54027"
     inkscape:window-width="2560"
     inkscape:window-height="969"
     inkscape:window-x="0"
     inkscape:window-y="25"
     inkscape:window-maximized="1"
     inkscape:current-layer="layer1"><inkscape:page
       x="0"
       y="0"
       width="135.46666"
       height="135.46666"
       id="page2"
       margin="0"
       bleed="0" /></sodipodi:namedview><defs
     id="defs1"><linearGradient
       id="linearGradient1"
       inkscape:collect="always"><stop
         style="stop-color:#1a1b98;stop-opacity:1;"
         offset="0"
         id="stop1" /><stop
         style="stop-color:#000e72;stop-opacity:1;"
         offset="1"
         id="stop2" /></linearGradient><radialGradient
       inkscape:collect="always"
       xlink:href="#linearGradient1"
       id="radialGradient10"
       cx="161.34969"
       cy="142.50563"
       fx="161.34969"
       fy="142.50563"
       r="21.54311"
       gradientUnits="userSpaceOnUse"
       spreadMethod="pad"
       gradientTransform="matrix(3.1440834,0,0,3.1440834,-402.29686,-299.54957)" /></defs><g
     inkscape:label="Layer 1"
     inkscape:groupmode="layer"
     id="layer1"
     transform="translate(-37.266666,-80.766669)"><g
       id="g5"
       inkscape:export-filename="album_manager_icon.svg"
       inkscape:export-xdpi="96"
       inkscape:export-ydpi="96"><rect
         style="fill:url(#radialGradient10);stroke:none;stroke-width:0.827249"
         id="rect1"
         width="135.46666"
         height="135.46666"
         x="37.26667"
         y="80.76667"
         ry="20.532957" /><path
         style="display:inline;fill:#9eb5ef;fill-opacity:1;stroke-width:4.74651"
         d="m 62.281442,120.02099 c -2.610569,0 -4.746637,2.1359 -4.746637,4.74646 v 61.70466 c 0,5.22113 4.271955,9.49309 9.493094,9.49309 h 61.704651 c 2.61056,0 4.74663,-2.13589 4.74663,-4.74646 0,-2.61057 -2.13607,-4.74663 -4.74662,-4.74663 H 71.774356 c -2.61057,0 -4.746457,-2.13589 -4.746457,-4.74646 v -56.9582 c 0,-2.61056 -2.135887,-4.74646 -4.746457,-4.74646 z"
         id="path3" /><path
         style="display:inline;fill:#ffffff;fill-opacity:1;stroke:#9eb5ef;stroke-width:4.747;stroke-dasharray:none;stroke-opacity:1"
         d="M 142.9721,101.0348 H 86.013904 c -5.221138,0 -9.492914,4.27197 -9.492914,9.4931 v 56.9582 c 0,5.22114 4.271776,9.49309 9.492914,9.49309 h 56.958206 c 5.22113,0 9.49309,-4.27195 9.49309,-9.49309 v -56.9582 c 0,-5.22113 -4.27196,-9.4931 -9.4931,-9.4931 z"
         id="path1-4" /><path
         style="display:inline;fill:#6189f4;fill-opacity:1;stroke-width:4.74651"
         d="m 128.73256,124.76745 h -9.49292 v 25.48874 c 0,6.02807 -4.27195,11.58163 -10.25247,12.34102 -8.02169,1.09072 -14.761777,-5.93317 -13.290373,-14.00221 0.949005,-5.22114 5.600923,-9.25576 10.916963,-9.588 2.99036,-0.19016 5.69583,0.75884 7.87925,2.42077 v -21.40678 c 0,-2.61056 2.13607,-4.74663 4.74663,-4.74663 h 9.49291 c 2.61056,0 4.74663,2.13607 4.74663,4.74663 0,2.61057 -2.13607,4.74646 -4.74662,4.74646 z"
         id="path2" /></g></g><style
     type="text/css"
     id="style1">.st0{fill-rule:evenodd;clip-rule:evenodd;}</style></svg>
